<svg width="26" height="22" viewBox="0 0 26 22" fill="none" xmlns="http://www.w3.org/2000/svg">
<path d="M13 0C11.2928 0 9.60235 0.291587 8.02511 0.858113C6.44788 1.42464 5.01477 2.25501 3.80761 3.30181C1.36964 5.41593 0 8.28328 0 11.2731C0 16.2558 3.731 20.4832 8.892 21.9825C9.542 22.0727 9.75 21.7233 9.75 21.4189V19.5137C6.149 20.1901 5.382 18.0031 5.382 18.0031C4.784 16.6955 3.939 16.346 3.939 16.346C2.756 15.6471 4.03 15.6696 4.03 15.6696C5.33 15.7485 6.019 16.8307 6.019 16.8307C7.15 18.5442 9.061 18.037 9.802 17.7664C9.919 17.0336 10.257 16.5376 10.621 16.2558C7.735 15.974 4.706 15.0045 4.706 10.7094C4.706 9.45813 5.2 8.45482 6.045 7.65443C5.915 7.3726 5.46 6.2002 6.175 4.67833C6.175 4.67833 7.267 4.37396 9.75 5.82819C10.777 5.58018 11.895 5.45618 13 5.45618C14.105 5.45618 15.223 5.58018 16.25 5.82819C18.733 4.37396 19.825 4.67833 19.825 4.67833C20.54 6.2002 20.085 7.3726 19.955 7.65443C20.8 8.45482 21.294 9.45813 21.294 10.7094C21.294 15.0158 18.252 15.9627 15.353 16.2445C15.821 16.594 16.25 17.2817 16.25 18.3301V21.4189C16.25 21.7233 16.458 22.084 17.121 21.9825C22.282 20.4719 26 16.2558 26 11.2731C26 9.79269 25.6637 8.32678 25.0104 6.95907C24.3571 5.59135 23.3995 4.34862 22.1924 3.30181C20.9852 2.25501 19.5521 1.42464 17.9749 0.858113C16.3977 0.291587 14.7072 0 13 0Z" fill="white"/>
</svg>
