<svg width="32" height="21" viewBox="0 0 32 21" fill="none" xmlns="http://www.w3.org/2000/svg">
<path d="M30.6816 0.393004C30.033 -0.00771006 29.1417 -0.110826 28.3606 0.124474L1.91158 8.08048C0.748117 8.43729 0.193192 9.42931 0.672073 10.2961C0.919758 10.7444 1.41278 11.0924 2.02691 11.2524L7.73276 12.7303L10.825 20.348C10.8312 20.3635 10.8503 20.373 10.8583 20.3879C10.8903 20.4486 10.9371 20.5046 10.9961 20.5528C11.0181 20.5722 11.042 20.5904 11.0676 20.6071C11.1447 20.6548 11.2341 20.6901 11.3304 20.7106C11.345 20.7138 11.3549 20.7235 11.3698 20.7261L11.3785 20.7258L11.3828 20.7272C11.4321 20.7354 11.4824 20.7393 11.5327 20.739C11.5986 20.7372 11.6639 20.7288 11.7266 20.7138C11.7388 20.7113 11.751 20.712 11.7629 20.709C11.8701 20.6809 11.9668 20.6347 12.0457 20.5738C12.0548 20.567 12.0688 20.5658 12.0776 20.5585L16.5264 16.9012L23.0165 20.6455C23.4109 20.8753 23.8971 21.0001 24.3976 21C25.4802 20.9999 26.4147 20.4348 26.6378 19.6455L31.4543 2.02781C31.6211 1.41839 31.3241 0.790026 30.6816 0.393004ZM12.4396 14.175L11.3956 17.9551L9.21841 12.59L20.0166 8.4005L12.64 13.8968C12.538 13.9729 12.4683 14.0696 12.4396 14.175ZM25.192 19.4243C25.1354 19.6267 24.9415 19.7928 24.6802 19.8625C24.4249 19.9357 24.1365 19.9031 23.9219 19.7766L16.8898 15.7196C16.5853 15.544 16.1508 15.5725 15.8922 15.7851L12.7986 18.3283L13.8408 14.5585L24.4524 6.65083C24.7408 6.43634 24.7413 6.08832 24.4534 5.8735C24.2257 5.70345 23.8762 5.66331 23.5903 5.77435L8.29201 11.7101L2.50984 10.2126C2.19467 10.1353 1.98032 9.91736 1.97645 9.67018C1.96122 9.42125 2.15899 9.1924 2.46948 9.09982L28.9142 1.14489C29.1904 1.05755 29.5092 1.09414 29.7373 1.23941C29.9644 1.37596 30.0687 1.59622 30.0069 1.80869L25.192 19.4243Z" fill="white"/>
</svg>
