<svg width="32" height="21" viewBox="0 0 32 21" fill="none" xmlns="http://www.w3.org/2000/svg">
<path fill-rule="evenodd" clip-rule="evenodd" d="M28.0933 14.7206C28.0933 14.7206 30.5996 17.6537 31.2196 19.0109C31.2317 19.0305 31.2411 19.0522 31.2475 19.0752C31.5002 19.5766 31.5622 19.9697 31.4382 20.2598C31.2289 20.7392 30.5206 20.9798 30.2803 21H25.8504C25.542 21 24.9003 20.9045 24.1191 20.2653C23.5223 19.7713 22.9287 18.9577 22.3536 18.1624C21.4949 16.9815 20.7525 15.9566 20.0007 15.9566C19.9058 15.9564 19.8115 15.975 19.7217 16.0117C19.1529 16.2248 18.4306 17.1853 18.4306 19.7437C18.4306 20.5445 17.8974 21 17.5238 21H15.4949C14.8036 21 11.2045 20.7135 8.013 16.7262C4.10234 11.8444 0.59004 2.05151 0.55594 1.96519C0.337389 1.33156 0.79619 0.986269 1.29219 0.986269H5.76549C6.36535 0.986269 6.56065 1.41604 6.69705 1.80173C6.85515 2.24436 7.44105 4.01487 8.40205 6.00394C9.95825 9.24007 10.9146 10.5569 11.6788 10.5569C11.8223 10.5574 11.9635 10.5131 12.088 10.4284C13.0862 9.77821 12.9002 5.55396 12.8537 4.6834C12.8537 4.51443 12.8521 2.79718 12.3406 1.96703C11.9748 1.37196 11.3517 1.14055 10.975 1.05606C11.0758 0.883417 11.2897 0.618943 11.5641 0.46283C12.2476 0.0587718 13.483 0 14.709 0H15.3895C16.7194 0.0220395 17.0635 0.123054 17.5471 0.268147C18.5205 0.543642 18.5391 1.29115 18.4538 3.83672C18.429 4.56402 18.4027 5.38315 18.4027 6.34738C18.4027 6.55309 18.3949 6.78266 18.3949 7.01592C18.3655 8.32176 18.3267 9.7929 19.1048 10.3971C19.2057 10.4716 19.3223 10.5111 19.4412 10.511C19.7109 10.511 20.5184 10.511 22.7086 6.0572C23.6696 4.09017 24.4136 1.77051 24.4647 1.59603C24.5081 1.49869 24.6383 1.22503 24.7964 1.11483C24.9089 1.04393 25.0349 1.00851 25.1622 1.01198H30.4245C30.998 1.01198 31.387 1.11483 31.463 1.37196C31.5901 1.78888 31.4382 3.06166 29.0357 6.91123C28.6311 7.55221 28.2762 8.10687 27.9646 8.59174C25.7869 11.9785 25.7869 12.1493 28.0933 14.7206Z" fill="white"/>
</svg>
